<svg xmlns="http://www.w3.org/2000/svg" xmlns:xlink="http://www.w3.org/1999/xlink" version="1.1" width="1000" height="1000" viewBox="0 0 1000 1000" xml:space="preserve">
<desc>Created with Fabric.js 3.5.0</desc>
<defs>
</defs>
<rect x="0" y="0" width="100%" height="100%" fill="rgba(255,255,255,0)"/>
<g transform="matrix(2.4772 0 0 2.4772 496.3534 497.2651)" id="603419">
<g style="" vector-effect="non-scaling-stroke">
		<g transform="matrix(1 0 0 1 -20.3742 -108.7154)" id="_72_music">
<path style="stroke: none; stroke-width: 1; stroke-dasharray: none; stroke-linecap: butt; stroke-dashoffset: 0; stroke-linejoin: miter; stroke-miterlimit: 4; is-custom-font: none; font-file-url: none; fill: rgb(255,255,255); fill-rule: nonzero; opacity: 1;" transform=" translate(-179.6258, -41.2847)" d="M 199.42 33.46 c -0.16 -2.31 -10.49 4.41 -10.49 4.41 s 8.75 -6.72 8 -8.4 s -10.61 5.67 -10.61 5.67 s 9 -6.93 7.61 -8.41 s -11 6.31 -11 6.31 s 9.8 -8.62 6.06 -8.83 c -1.68 -0.09 -14.87 8.88 -29.16 19.65 c 4 5 8 9.83 12.32 14.5 c 4.58 -4.74 8.19 -8.51 8.68 -9.14 c 1.47 -1.89 16.07 -0.63 16.13 -2.94 s -9.62 -3.36 -9.62 -3.36 S 199.58 35.77 199.42 33.46 Z" stroke-linecap="round"/>
</g>
		<g transform="matrix(1 0 0 1 -20.4204 -108.7176)" id="_72_music">
<path style="stroke: none; stroke-width: 1; stroke-dasharray: none; stroke-linecap: butt; stroke-dashoffset: 0; stroke-linejoin: miter; stroke-miterlimit: 4; is-custom-font: none; font-file-url: none; fill: rgb(26,32,44); fill-rule: nonzero; opacity: 1;" transform=" translate(-179.5797, -41.2824)" d="M 172.09 58.81 h 0 a 0.44 0.44 0 0 1 -0.33 -0.14 c -3.84 -4.16 -7.76 -8.77 -12.35 -14.53 a 0.46 0.46 0 0 1 -0.1 -0.34 a 0.5 0.5 0 0 1 0.18 -0.31 c 10.57 -8 27.07 -19.73 29.43 -19.73 h 0 a 1.19 1.19 0 0 1 1.22 0.75 c 0.32 0.9 -0.8 2.56 -2.27 4.23 c 2.74 -1.83 5.48 -3.24 6.34 -2.32 a 1 1 0 0 1 0.26 0.81 c -0.07 0.82 -1 2 -2.24 3.31 c 1.88 -1.11 3.64 -1.95 4.45 -1.74 a 0.84 0.84 0 0 1 0.6 0.47 c 0.49 1.05 -1.39 3.19 -3.58 5.2 c 2.35 -1.26 4.73 -2.28 5.64 -1.82 a 0.91 0.91 0 0 1 0.51 0.78 h 0 c 0.15 2.16 -7.8 7.16 -11.21 9.2 c 3.12 0.43 8.73 1.5 8.68 3.66 c 0 1.57 -3.31 1.83 -8.66 2.11 c -3.12 0.17 -7 0.38 -7.56 1.1 s -3.3 3.58 -8.71 9.18 A 0.49 0.49 0 0 1 172.09 58.81 Z M 160.42 43.94 c 4.31 5.4 8 9.79 11.68 13.75 c 6.34 -6.56 8 -8.38 8.31 -8.75 c 0.76 -1 3.62 -1.2 8.23 -1.45 c 2.72 -0.15 7.78 -0.42 7.8 -1.22 c 0 -1.17 -4.76 -2.41 -9.21 -2.9 a 0.45 0.45 0 0 1 -0.39 -0.36 a 0.46 0.46 0 0 1 0.21 -0.49 c 5.93 -3.44 12 -7.76 11.92 -9 h 0 a 0.06 0.06 0 0 0 0 0 c -0.62 -0.43 -5.1 1.76 -9.79 4.81 a 0.46 0.46 0 0 1 -0.52 -0.75 c 4.51 -3.46 8.17 -7.13 7.83 -7.85 c -0.67 -0.33 -5.23 2.34 -9.91 5.85 a 0.46 0.46 0 0 1 -0.56 -0.73 c 2.87 -2.22 7.46 -6.25 7.58 -7.62 c 0 -0.06 0 -0.1 0 -0.11 c -0.56 -0.62 -5.53 2.41 -10.41 6.35 a 0.47 0.47 0 0 1 -0.64 -0.07 a 0.44 0.44 0 0 1 0 -0.63 c 3.49 -3.08 7.06 -7 6.74 -7.89 c 0 -0.09 -0.23 -0.13 -0.41 -0.14 h 0 C 187.51 24.67 176.3 32 160.42 43.94 Z" stroke-linecap="round"/>
</g>
		<g transform="matrix(1 0 0 1 -53.4892 -62.88)" id="_72_music">
<path style="stroke: none; stroke-width: 1; stroke-dasharray: none; stroke-linecap: butt; stroke-dashoffset: 0; stroke-linejoin: miter; stroke-miterlimit: 4; is-custom-font: none; font-file-url: none; fill: rgb(26,32,44); fill-rule: nonzero; opacity: 1;" transform=" translate(-146.5107, -87.12)" d="M 121.29 78.18 c -2.94 9.29 14.82 52.2 14.82 52.2 l 22 -27.19 c -0.49 -0.84 -11.61 -20.18 -11.61 -20.18 s 16.41 -15.19 25.56 -24.65 c -4.3 -4.67 -8.36 -9.54 -12.32 -14.5 C 142.18 57.1 122.91 73.06 121.29 78.18 Z" stroke-linecap="round"/>
</g>
		<g transform="matrix(1 0 0 1 -53.51 -62.8746)" id="_72_music">
<path style="stroke: none; stroke-width: 1; stroke-dasharray: none; stroke-linecap: butt; stroke-dashoffset: 0; stroke-linejoin: miter; stroke-miterlimit: 4; is-custom-font: none; font-file-url: none; fill: rgb(26,32,44); fill-rule: nonzero; opacity: 1;" transform=" translate(-146.49, -87.1254)" d="M 136.11 130.82 H 136 a 0.43 0.43 0 0 1 -0.34 -0.27 c -0.73 -1.75 -17.79 -43.15 -14.83 -52.49 h 0 c 1.67 -5.27 21 -21.3 38.63 -34.54 a 0.44 0.44 0 0 1 0.61 0.07 c 4.57 5.74 8.48 10.34 12.31 14.48 a 0.45 0.45 0 0 1 0 0.6 c -8.43 8.72 -23.2 22.46 -25.33 24.43 c 1.42 2.47 11 19.1 11.45 19.88 a 0.46 0.46 0 0 1 0 0.5 l -22 27.18 A 0.44 0.44 0 0 1 136.11 130.82 Z m 23.58 -86.35 c -16.6 12.52 -36.38 28.8 -38 33.84 h 0 c -2.66 8.4 12.27 45.67 14.52 51.21 l 21.38 -26.37 L 146.14 83.23 a 0.46 0.46 0 0 1 0.09 -0.55 c 0.16 -0.15 16.16 -15 25.26 -24.33 C 167.81 54.35 164.05 49.93 159.69 44.47 Z m -38.4 33.71 h 0 Z" stroke-linecap="round"/>
</g>
		<g transform="matrix(1 0 0 1 13.3861 -27.7051)" id="_72_music">
<path style="stroke: none; stroke-width: 1; stroke-dasharray: none; stroke-linecap: butt; stroke-dashoffset: 0; stroke-linejoin: miter; stroke-miterlimit: 4; is-custom-font: none; font-file-url: none; fill: rgb(255,255,255); fill-rule: nonzero; opacity: 1;" transform=" translate(-213.3861, -122.2949)" d="M 173.59 122.54 c 1.8 12.46 10.09 23 19.09 32.63 c 5.39 5.72 12 11.54 19.89 11.17 c 3.77 -0.19 7.31 -1.81 10.6 -3.65 A 80.32 80.32 0 0 0 244.94 145 a 4.88 4.88 0 0 1 -4.87 -4.36 a 9.64 9.64 0 0 0 10 -1.12 c 6.12 -4.86 3.15 -9.15 -1.53 -12.77 a 56.43 56.43 0 0 1 -16.95 -21.41 c -5.84 -13.06 -17.44 -30.51 -34.62 -26.53 c -16.52 3.82 -21 18.64 -23.28 33.34 A 34.85 34.85 0 0 0 173.59 122.54 Z" stroke-linecap="round"/>
</g>
		<g transform="matrix(1 0 0 1 13.3634 -27.72)" id="_72_music">
<path style="stroke: none; stroke-width: 1; stroke-dasharray: none; stroke-linecap: butt; stroke-dashoffset: 0; stroke-linejoin: miter; stroke-miterlimit: 4; is-custom-font: none; font-file-url: none; fill: rgb(26,32,44); fill-rule: nonzero; opacity: 1;" transform=" translate(-213.3634, -122.28)" d="M 211.83 166.81 c -7.75 0 -14.19 -5.7 -19.48 -11.33 c -8.45 -9 -17.34 -19.93 -19.21 -32.87 a 35.41 35.41 0 0 1 0.07 -10.58 c 1 -6.3 2.59 -14.37 6.36 -20.91 a 25.68 25.68 0 0 1 17.26 -12.81 c 7.84 -1.81 22.82 -0.74 35.15 26.79 a 55.77 55.77 0 0 0 16.81 21.24 c 3.5 2.71 5.14 5.09 5.16 7.51 c 0 2 -1.21 4.06 -3.63 6 a 10.1 10.1 0 0 1 -9.65 1.51 a 4.49 4.49 0 0 0 4.25 3.15 a 0.45 0.45 0 0 1 0.43 0.26 a 0.44 0.44 0 0 1 -0.07 0.49 a 79.9 79.9 0 0 1 -21.89 17.85 c -3.09 1.72 -6.8 3.51 -10.8 3.7 Z M 201.7 78.67 a 20.83 20.83 0 0 0 -4.66 0.53 c -16.23 3.76 -20.61 18.06 -22.93 33 a 34.54 34.54 0 0 0 -0.07 10.3 h 0 c 1.83 12.7 10.62 23.5 19 32.38 c 5.32 5.66 11.79 11.4 19.53 11 c 3.81 -0.18 7.4 -1.92 10.4 -3.59 a 79.07 79.07 0 0 0 21 -16.95 a 5.37 5.37 0 0 1 -4.38 -4.71 a 0.44 0.44 0 0 1 0.2 -0.41 a 0.43 0.43 0 0 1 0.45 0 a 9.18 9.18 0 0 0 9.49 -1.06 c 2.19 -1.75 3.3 -3.52 3.28 -5.27 c 0 -2.08 -1.58 -4.3 -4.8 -6.79 a 56.75 56.75 0 0 1 -17.08 -21.58 C 221.24 83.36 209.7 78.67 201.7 78.67 Z" stroke-linecap="round"/>
</g>
		<g transform="matrix(1 0 0 1 96.7295 17.4863)" id="_72_music">
<path style="stroke: none; stroke-width: 1; stroke-dasharray: none; stroke-linecap: butt; stroke-dashoffset: 0; stroke-linejoin: miter; stroke-miterlimit: 4; is-custom-font: none; font-file-url: none; fill: rgb(255,255,255); fill-rule: nonzero; opacity: 1;" transform=" translate(-296.7295, -167.4862)" d="M 287.82 161.65 c -0.7 2.77 -12.19 23.29 -12.19 23.29 l 15 8.11 s 13.57 -22.74 14.73 -24.25 s 11 -14.62 12.34 -19.22 s -8.12 -8 -12 -7.63 S 288.52 158.88 287.82 161.65 Z" stroke-linecap="round"/>
</g>
		<g transform="matrix(1 0 0 1 96.6668 17.5134)" id="_72_music">
<path style="stroke: none; stroke-width: 1; stroke-dasharray: none; stroke-linecap: butt; stroke-dashoffset: 0; stroke-linejoin: miter; stroke-miterlimit: 4; is-custom-font: none; font-file-url: none; fill: rgb(26,32,44); fill-rule: nonzero; opacity: 1;" transform=" translate(-296.6668, -167.5134)" d="M 290.61 193.51 a 0.39 0.39 0 0 1 -0.21 -0.06 l -15 -8.11 a 0.44 0.44 0 0 1 -0.22 -0.28 a 0.43 0.43 0 0 1 0 -0.35 c 4 -7.07 11.59 -21 12.14 -23.17 h 0 c 0.74 -2.94 14.19 -19.69 18.25 -20 c 2.95 -0.25 9.1 1.54 11.57 4.53 a 3.93 3.93 0 0 1 0.92 3.68 c -1.43 5 -12.31 19.24 -12.41 19.38 c -1.14 1.47 -14.57 24 -14.71 24.2 A 0.43 0.43 0 0 1 290.61 193.51 Z m -14.35 -8.76 l 14.19 7.69 c 1.83 -3.07 13.44 -22.5 14.53 -23.92 c 2.29 -3 11.06 -14.88 12.26 -19.07 a 3 3 0 0 0 -0.75 -2.85 c -2.25 -2.73 -8.1 -4.43 -10.78 -4.2 c -3.66 0.32 -16.84 17 -17.45 19.36 C 287.6 164.37 277.92 181.78 276.26 184.75 Z" stroke-linecap="round"/>
</g>
		<g transform="matrix(1 0 0 1 63.95 42.9441)" id="_72_music">
<path style="stroke: none; stroke-width: 1; stroke-dasharray: none; stroke-linecap: butt; stroke-dashoffset: 0; stroke-linejoin: miter; stroke-miterlimit: 4; is-custom-font: none; font-file-url: none; fill: rgb(26,32,44); fill-rule: nonzero; opacity: 1;" transform=" translate(-263.95, -192.9441)" d="M 283.51 170.52 l -13.4 16.34 l -28.9 -19.37 L 228.9 190.41 s 40.93 30.73 46.73 27.79 S 299 179 299 179 Z" stroke-linecap="round"/>
</g>
		<g transform="matrix(1 0 0 1 63.9611 42.9351)" id="_72_music">
<path style="stroke: none; stroke-width: 1; stroke-dasharray: none; stroke-linecap: butt; stroke-dashoffset: 0; stroke-linejoin: miter; stroke-miterlimit: 4; is-custom-font: none; font-file-url: none; fill: rgb(26,32,44); fill-rule: nonzero; opacity: 1;" transform=" translate(-263.9611, -192.9351)" d="M 274.7 218.82 c -8.44 0 -42.07 -25.06 -46.07 -28.06 a 0.45 0.45 0 0 1 -0.12 -0.56 l 12.31 -22.92 a 0.44 0.44 0 0 1 0.28 -0.22 a 0.43 0.43 0 0 1 0.35 0.06 L 270 186.27 l 13.15 -16 a 0.43 0.43 0 0 1 0.55 -0.11 l 15.54 8.48 a 0.45 0.45 0 0 1 0.18 0.58 c -0.72 1.49 -17.73 36.43 -23.61 39.4 A 2.4 2.4 0 0 1 274.7 218.82 Z m -45.24 -28.54 c 11.56 8.65 41.45 29.82 46 27.53 c 5.29 -2.69 21.13 -34.76 23 -38.62 l -14.84 -8.11 l -13.17 16.06 a 0.42 0.42 0 0 1 -0.58 0.09 l -28.51 -19.11 Z" stroke-linecap="round"/>
</g>
		<g transform="matrix(1 0 0 1 105.105 0.54)" id="_72_music">
<polygon style="stroke: none; stroke-width: 1; stroke-dasharray: none; stroke-linecap: butt; stroke-dashoffset: 0; stroke-linejoin: miter; stroke-miterlimit: 4; is-custom-font: none; font-file-url: none; fill: rgb(26,32,44); fill-rule: nonzero; opacity: 1;" points="-9.325,-19.98 -9.455,19.98 9.455,19.98 9.455,-19.98 -9.325,-19.98 "/>
</g>
		<g transform="matrix(1 0 0 1 105.105 0.555)" id="_72_music">
<path style="stroke: none; stroke-width: 1; stroke-dasharray: none; stroke-linecap: butt; stroke-dashoffset: 0; stroke-linejoin: miter; stroke-miterlimit: 4; is-custom-font: none; font-file-url: none; fill: rgb(26,32,44); fill-rule: nonzero; opacity: 1;" transform=" translate(-305.105, -150.555)" d="M 314.56 171 H 295.65 a 0.44 0.44 0 0 1 -0.44 -0.45 l 0.12 -40 a 0.45 0.45 0 0 1 0.45 -0.44 h 18.78 a 0.44 0.44 0 0 1 0.44 0.44 v 40 A 0.44 0.44 0 0 1 314.56 171 Z m -18.46 -0.88 h 18 V 131 h -17.9 Z" stroke-linecap="round"/>
</g>
		<g transform="matrix(1 0 0 1 105.11 -0.21)" id="_72_music">
<polygon style="stroke: none; stroke-width: 1; stroke-dasharray: none; stroke-linecap: butt; stroke-dashoffset: 0; stroke-linejoin: miter; stroke-miterlimit: 4; is-custom-font: none; font-file-url: none; fill: rgb(255,255,255); fill-rule: nonzero; opacity: 1;" points="-7.41,-15.7 -7.51,15.7 7.51,15.7 7.51,-15.7 -7.41,-15.7 "/>
</g>
		<g transform="matrix(1 0 0 1 105.1299 -0.2098)" id="_72_music">
<path style="stroke: none; stroke-width: 1; stroke-dasharray: none; stroke-linecap: butt; stroke-dashoffset: 0; stroke-linejoin: miter; stroke-miterlimit: 4; is-custom-font: none; font-file-url: none; fill: rgb(26,32,44); fill-rule: nonzero; opacity: 1;" transform=" translate(-305.1298, -149.7902)" d="M 312.62 165.94 h -15 a 0.44 0.44 0 0 1 -0.32 -0.13 a 0.44 0.44 0 0 1 -0.13 -0.33 l 0.09 -31.39 a 0.46 0.46 0 0 1 0.46 -0.45 h 14.92 a 0.45 0.45 0 0 1 0.45 0.45 v 31.4 A 0.45 0.45 0 0 1 312.62 165.94 Z M 298.06 165 h 14.1 V 134.55 h -14 Z" stroke-linecap="round"/>
</g>
		<g transform="matrix(1 0 0 1 95.6221 4.5013)" id="_72_music">
<path style="stroke: none; stroke-width: 1; stroke-dasharray: none; stroke-linecap: butt; stroke-dashoffset: 0; stroke-linejoin: miter; stroke-miterlimit: 4; is-custom-font: none; font-file-url: none; fill: rgb(255,255,255); fill-rule: nonzero; opacity: 1;" transform=" translate(-295.6221, -154.5013)" d="M 287 163.73 s -2.82 -13.46 1.41 -15.57 s 18.77 -4.58 16.52 -1.28 s -10.13 5.34 -10.13 5.34 s 1.62 4.71 -0.16 8.05" stroke-linecap="round"/>
</g>
		<g transform="matrix(1 0 0 1 95.6287 4.5229)" id="_72_music">
<path style="stroke: none; stroke-width: 1; stroke-dasharray: none; stroke-linecap: butt; stroke-dashoffset: 0; stroke-linejoin: miter; stroke-miterlimit: 4; is-custom-font: none; font-file-url: none; fill: rgb(26,32,44); fill-rule: nonzero; opacity: 1;" transform=" translate(-295.6287, -154.523)" d="M 287 164.18 a 0.44 0.44 0 0 1 -0.44 -0.36 c -0.12 -0.56 -2.85 -13.83 1.65 -16.07 c 3.65 -1.81 15.43 -4.14 17.15 -2.18 a 1.19 1.19 0 0 1 -0.06 1.57 c -2 3 -8.17 4.9 -9.93 5.4 c 0.37 1.31 1.21 5.06 -0.33 8 a 0.46 0.46 0 0 1 -0.62 0.18 a 0.47 0.47 0 0 1 -0.19 -0.62 c 1.67 -3.12 0.15 -7.63 0.13 -7.68 a 0.45 0.45 0 0 1 0 -0.36 a 0.48 0.48 0 0 1 0.29 -0.23 c 0.08 0 7.74 -2 9.87 -5.15 c 0.15 -0.22 0.19 -0.38 0.12 -0.46 c -1.08 -1.24 -12 0.4 -16.06 2.4 c -3.21 1.6 -1.92 11.41 -1.16 15.06 a 0.45 0.45 0 0 1 -0.35 0.54 Z" stroke-linecap="round"/>
</g>
		<g transform="matrix(1 0 0 1 -8.83 27.635)" id="_72_music">
<path style="stroke: none; stroke-width: 1; stroke-dasharray: none; stroke-linecap: butt; stroke-dashoffset: 0; stroke-linejoin: miter; stroke-miterlimit: 4; is-custom-font: none; font-file-url: none; fill: rgb(11,197,234); fill-rule: nonzero; opacity: 1;" transform=" translate(-191.17, -177.635)" d="M 182.45 137.59 L 157.54 94.83 l -28 31.09 l 10.4 22.42 s -16 37.87 -16 112.1 c 0 0 85.18 -0.37 106.62 -0.37 l -28 -43.55 s 7 -20.18 10.61 -25.22 l 20.85 11.35 l 24.38 -33.21 Z" stroke-linecap="round"/>
</g>
		<g transform="matrix(1 0 0 1 -12.8808 5.1836)" id="_72_music">
<path style="stroke: none; stroke-width: 1; stroke-dasharray: none; stroke-linecap: butt; stroke-dashoffset: 0; stroke-linejoin: miter; stroke-miterlimit: 4; is-custom-font: none; font-file-url: none; fill: rgb(26,32,44); fill-rule: nonzero; opacity: 1;" transform=" translate(-187.1192, -155.1836)" d="M 182.09 178.35 c 13.75 8 17 -24.52 17.61 -31.56 a 14.5 14.5 0 0 0 -0.34 -5.8 c -0.79 -2.4 -2.64 -4.26 -4.49 -6 c -2.21 -2 -4.76 -4.1 -7.77 -4.23 a 9 9 0 0 0 -7.17 3.75 a 22 22 0 0 0 -3.44 7.62 c -3.24 11.31 -3.12 23.25 3.13 33.53 a 7.19 7.19 0 0 0 2.17 2.47 Z" stroke-linecap="round"/>
</g>
		<g transform="matrix(1 0 0 1 -12.9024 5.2)" id="_72_music">
<path style="stroke: none; stroke-width: 1; stroke-dasharray: none; stroke-linecap: butt; stroke-dashoffset: 0; stroke-linejoin: miter; stroke-miterlimit: 4; is-custom-font: none; font-file-url: none; fill: rgb(26,32,44); fill-rule: nonzero; opacity: 1;" transform=" translate(-187.0976, -155.2)" d="M 186.2 180.05 a 8.64 8.64 0 0 1 -4.33 -1.32 l -0.31 -0.19 a 7.53 7.53 0 0 1 -2.31 -2.62 c -5.73 -9.43 -6.83 -21.14 -3.18 -33.88 a 22.45 22.45 0 0 1 3.51 -7.77 a 9.37 9.37 0 0 1 7.54 -3.92 c 3.08 0.13 5.69 2.17 8 4.35 c 1.88 1.73 3.78 3.64 4.61 6.15 a 15.27 15.27 0 0 1 0.36 6 c -0.93 10.49 -3.6 28.66 -11 32.49 A 6.23 6.23 0 0 1 186.2 180.05 Z m 0.62 -48.82 a 8.58 8.58 0 0 0 -6.55 3.58 a 21.62 21.62 0 0 0 -3.35 7.47 c -3.59 12.5 -2.52 24 3.08 33.18 a 6.73 6.73 0 0 0 2 2.33 l 0.29 0.17 h 0 c 2.38 1.39 4.48 1.58 6.41 0.58 c 5.14 -2.66 9 -14.24 10.54 -31.79 a 14.35 14.35 0 0 0 -0.32 -5.63 c -0.76 -2.31 -2.57 -4.12 -4.37 -5.78 c -2.24 -2.06 -4.69 -4 -7.49 -4.11 Z" stroke-linecap="round"/>
</g>
		<g transform="matrix(1 0 0 1 17.3114 -27.0468)" id="_72_music">
<path style="stroke: none; stroke-width: 1; stroke-dasharray: none; stroke-linecap: butt; stroke-dashoffset: 0; stroke-linejoin: miter; stroke-miterlimit: 4; is-custom-font: none; font-file-url: none; fill: rgb(26,32,44); fill-rule: nonzero; opacity: 1;" transform=" translate(-217.3115, -122.9532)" d="M 223.12 117.37 c 1.27 4.61 -0.81 10.48 -3.93 13.89 c -2.08 2.25 -6.64 2.85 -7.56 -0.81 A 18.57 18.57 0 0 1 214 116.22 c 2 -3.29 5.83 -5.17 8.29 -0.94 A 8.71 8.71 0 0 1 223.12 117.37 Z" stroke-linecap="round"/>
</g>
		<g transform="matrix(1 0 0 1 17.315 -27.045)" id="_72_music">
<path style="stroke: none; stroke-width: 1; stroke-dasharray: none; stroke-linecap: butt; stroke-dashoffset: 0; stroke-linejoin: miter; stroke-miterlimit: 4; is-custom-font: none; font-file-url: none; fill: rgb(26,32,44); fill-rule: nonzero; opacity: 1;" transform=" translate(-217.3151, -122.955)" d="M 215.05 133.51 a 4.8 4.8 0 0 1 -1.14 -0.13 a 3.7 3.7 0 0 1 -2.71 -2.83 A 19.09 19.09 0 0 1 213.58 116 c 1.4 -2.25 3.38 -3.61 5.23 -3.6 c 1.05 0 2.56 0.49 3.82 2.67 a 9.47 9.47 0 0 1 0.92 2.19 h 0 c 1.38 5 -1 11 -4 14.3 A 6.24 6.24 0 0 1 215.05 133.51 Z m 3.71 -20.23 c -1.52 0 -3.21 1.21 -4.43 3.17 a 18.17 18.17 0 0 0 -2.27 13.89 a 2.79 2.79 0 0 0 2.07 2.18 a 5.19 5.19 0 0 0 4.73 -1.56 c 2.82 -3.06 5.12 -8.83 3.84 -13.47 h 0 a 8.42 8.42 0 0 0 -0.83 -2 c -0.85 -1.46 -1.88 -2.21 -3.07 -2.22 Z" stroke-linecap="round"/>
</g>
		<g transform="matrix(1 0 0 1 -1.6539 -23.5739)" id="_72_music">
<path style="stroke: none; stroke-width: 1; stroke-dasharray: none; stroke-linecap: butt; stroke-dashoffset: 0; stroke-linejoin: miter; stroke-miterlimit: 4; is-custom-font: none; font-file-url: none; fill: rgb(255,255,255); fill-rule: nonzero; opacity: 1;" transform=" translate(-198.3461, -126.4261)" d="M 201.67 138 c -2 7.67 -4 25.14 -16.75 16 a 16.18 16.18 0 0 1 -3.38 -3.62 c -6.28 -8.37 -4.49 -13.65 -1.24 -22.84 c 1.4 -4 2.61 -8 4 -12 s 3.68 -7.76 5.58 -11.55 c -0.07 0.13 6.25 1 12.57 -1.87 S 214 96.27 214 96.27 c 1.71 2.56 3.56 4.5 4.47 7.54 a 23 23 0 0 1 0.71 9.08 c -0.8 7.47 -3.79 15.55 -7.18 22.22 S 201.67 138 201.67 138 Z" stroke-linecap="round"/>
</g>
		<g transform="matrix(1 0 0 1 -1.6554 -23.5627)" id="_72_music">
<path style="stroke: none; stroke-width: 1; stroke-dasharray: none; stroke-linecap: butt; stroke-dashoffset: 0; stroke-linejoin: miter; stroke-miterlimit: 4; is-custom-font: none; font-file-url: none; fill: rgb(26,32,44); fill-rule: nonzero; opacity: 1;" transform=" translate(-198.3446, -126.4372)" d="M 191.36 157.07 c -2 0 -4.23 -0.9 -6.71 -2.68 a 16.71 16.71 0 0 1 -3.48 -3.72 c -6.47 -8.63 -4.52 -14.14 -1.3 -23.26 c 0.67 -1.92 1.31 -3.89 1.93 -5.79 c 0.67 -2.05 1.36 -4.16 2.1 -6.23 a 66 66 0 0 1 3.95 -8.43 c 0.56 -1.06 1.12 -2.12 1.65 -3.18 h 0 a 0.45 0.45 0 0 1 0.61 -0.2 h 0 a 23 23 0 0 0 12.15 -1.88 c 6.22 -2.85 11.46 -5.81 11.51 -5.84 a 0.47 0.47 0 0 1 0.61 0.15 c 0.43 0.64 0.86 1.24 1.29 1.83 a 18.82 18.82 0 0 1 3.24 5.82 a 23.71 23.71 0 0 1 0.73 9.27 c -0.73 6.69 -3.29 14.64 -7.23 22.37 a 7.3 7.3 0 0 1 -4.33 3.93 a 9.27 9.27 0 0 1 -6.13 -0.55 c -0.2 0.79 -0.41 1.68 -0.62 2.61 c -1.32 5.73 -3.12 13.59 -7.89 15.39 A 6 6 0 0 1 191.36 157.07 Z m -1.2 -52.57 c -0.48 1 -1 1.92 -1.5 2.88 a 65.52 65.52 0 0 0 -3.9 8.32 c -0.73 2 -1.42 4.16 -2.09 6.2 s -1.26 3.88 -1.94 5.81 c -3.23 9.14 -5 14.17 1.18 22.41 a 15.87 15.87 0 0 0 3.28 3.53 c 3.14 2.26 5.82 3 8 2.18 c 4.31 -1.63 6 -9.2 7.32 -14.73 c 0.27 -1.16 0.51 -2.25 0.76 -3.18 a 0.47 0.47 0 0 1 0.66 -0.29 a 8.72 8.72 0 0 0 6 0.73 a 6.37 6.37 0 0 0 3.77 -3.46 c 3.89 -7.64 6.43 -15.48 7.14 -22.06 a 22.57 22.57 0 0 0 -0.7 -8.9 A 18.09 18.09 0 0 0 215 98.39 c -0.36 -0.49 -0.73 -1 -1.08 -1.51 c -1.31 0.72 -5.91 3.23 -11.22 5.66 A 24 24 0 0 1 190.16 104.5 Z" stroke-linecap="round"/>
</g>
		<g transform="matrix(1 0 0 1 -4.6798 -12.41)" id="_72_music">
<path style="stroke: none; stroke-width: 1; stroke-dasharray: none; stroke-linecap: butt; stroke-dashoffset: 0; stroke-linejoin: miter; stroke-miterlimit: 4; is-custom-font: none; font-file-url: none; fill: rgb(26,32,44); fill-rule: nonzero; opacity: 1;" transform=" translate(-195.3202, -137.59)" d="M 199.57 145.42 s -6.19 -1.41 -9 -6.56 s -1.11 -9.1 -1.11 -9.1 s 5.4 6.25 12.23 8.27 Z" stroke-linecap="round"/>
</g>
		<g transform="matrix(1 0 0 1 -4.713 -12.4023)" id="_72_music">
<path style="stroke: none; stroke-width: 1; stroke-dasharray: none; stroke-linecap: butt; stroke-dashoffset: 0; stroke-linejoin: miter; stroke-miterlimit: 4; is-custom-font: none; font-file-url: none; fill: rgb(26,32,44); fill-rule: nonzero; opacity: 1;" transform=" translate(-195.287, -137.5977)" d="M 199.57 145.86 h -0.1 c -0.26 -0.06 -6.42 -1.51 -9.3 -6.77 s -1.21 -9.32 -1.14 -9.49 a 0.44 0.44 0 0 1 0.34 -0.26 a 0.46 0.46 0 0 1 0.4 0.14 c 0 0.06 5.41 6.18 12 8.14 a 0.44 0.44 0 0 1 0.3 0.55 L 200 145.54 A 0.44 0.44 0 0 1 199.57 145.86 Z m -9.94 -15.23 a 11.16 11.16 0 0 0 1.31 8 c 2.29 4.18 6.93 5.82 8.32 6.23 l 1.87 -6.55 C 195.6 136.54 191.12 132.2 189.63 130.63 Z" stroke-linecap="round"/>
</g>
		<g transform="matrix(1 0 0 1 2.4484 -29.9414)" id="_72_music">
<path style="stroke: none; stroke-width: 1; stroke-dasharray: none; stroke-linecap: butt; stroke-dashoffset: 0; stroke-linejoin: miter; stroke-miterlimit: 4; is-custom-font: none; font-file-url: none; fill: rgb(26,32,44); fill-rule: nonzero; opacity: 1;" transform=" translate(-202.4484, -120.0586)" d="M 203.36 125.4 a 8.32 8.32 0 0 1 -3.57 -1.12 a 0.44 0.44 0 0 1 0.44 -0.77 c 0.77 0.44 3 1.44 4 0.79 c 0.65 -0.42 -0.06 -4.53 -1.56 -9 a 0.44 0.44 0 0 1 0.84 -0.28 c 0.9 2.67 2.81 9 1.19 10 A 2.5 2.5 0 0 1 203.36 125.4 Z" stroke-linecap="round"/>
</g>
		<g transform="matrix(1 0 0 1 0.5949 -24.0811)" id="_72_music">
<path style="stroke: none; stroke-width: 1; stroke-dasharray: none; stroke-linecap: butt; stroke-dashoffset: 0; stroke-linejoin: miter; stroke-miterlimit: 4; is-custom-font: none; font-file-url: none; fill: rgb(26,32,44); fill-rule: nonzero; opacity: 1;" transform=" translate(-200.595, -125.9188)" d="M 201.53 130.82 a 6.68 6.68 0 0 1 -3 -0.66 c -2.5 -1.24 -4 -4.15 -4.52 -8.65 a 0.45 0.45 0 0 1 0.39 -0.49 a 0.44 0.44 0 0 1 0.49 0.39 c 0.47 4.18 1.82 6.86 4 8 c 3.33 1.65 7.58 -0.85 7.62 -0.87 a 0.44 0.44 0 0 1 0.61 0.15 a 0.45 0.45 0 0 1 -0.15 0.61 A 12 12 0 0 1 201.53 130.82 Z" stroke-linecap="round"/>
</g>
		<g transform="matrix(1 0 0 1 -0.5271 -40.7958)" id="_72_music">
<path style="stroke: none; stroke-width: 1; stroke-dasharray: none; stroke-linecap: butt; stroke-dashoffset: 0; stroke-linejoin: miter; stroke-miterlimit: 4; is-custom-font: none; font-file-url: none; fill: rgb(26,32,44); fill-rule: nonzero; opacity: 1;" transform=" translate(-199.4729, -109.2042)" d="M 202 110.86 a 0.44 0.44 0 0 1 -0.44 -0.41 c -0.07 -1 -0.36 -1.61 -0.88 -1.87 c -1 -0.52 -2.87 0.42 -3.49 0.83 a 0.44 0.44 0 0 1 -0.49 -0.74 c 0.11 -0.07 2.67 -1.73 4.37 -0.88 a 2.85 2.85 0 0 1 1.37 2.6 a 0.44 0.44 0 0 1 -0.41 0.47 Z" stroke-linecap="round"/>
</g>
		<g transform="matrix(1 0 0 1 10.7914 -36.4042)" id="_72_music">
<path style="stroke: none; stroke-width: 1; stroke-dasharray: none; stroke-linecap: butt; stroke-dashoffset: 0; stroke-linejoin: miter; stroke-miterlimit: 4; is-custom-font: none; font-file-url: none; fill: rgb(26,32,44); fill-rule: nonzero; opacity: 1;" transform=" translate(-210.7914, -113.5959)" d="M 213.09 115.82 a 0.44 0.44 0 0 1 -0.44 -0.4 s -0.2 -2.2 -1.45 -3 c -1.08 -0.71 -2.34 0.91 -2.35 0.93 a 0.44 0.44 0 0 1 -0.62 0.08 a 0.44 0.44 0 0 1 -0.09 -0.62 c 0.61 -0.8 2.13 -2.06 3.55 -1.13 c 1.61 1.06 1.83 3.58 1.84 3.68 a 0.44 0.44 0 0 1 -0.4 0.48 Z" stroke-linecap="round"/>
</g>
		<g transform="matrix(1 0 0 1 -13.7217 -40.7858)" id="_72_music">
<path style="stroke: none; stroke-width: 1; stroke-dasharray: none; stroke-linecap: butt; stroke-dashoffset: 0; stroke-linejoin: miter; stroke-miterlimit: 4; is-custom-font: none; font-file-url: none; fill: rgb(26,32,44); fill-rule: nonzero; opacity: 1;" transform=" translate(-186.2782, -109.2142)" d="M 177.92 113.4 a 8.89 8.89 0 0 0 0.8 4.65 c 1.42 2.63 4.92 3.7 7.78 2.85 c 7.47 -2.21 11.06 -16.42 5.41 -22 c -5.25 -5.18 -11.21 3 -12.44 7.83 C 178.9 109 178 111.1 177.92 113.4 Z" stroke-linecap="round"/>
</g>
		<g transform="matrix(1 0 0 1 -13.7383 -40.7667)" id="_72_music">
<path style="stroke: none; stroke-width: 1; stroke-dasharray: none; stroke-linecap: butt; stroke-dashoffset: 0; stroke-linejoin: miter; stroke-miterlimit: 4; is-custom-font: none; font-file-url: none; fill: rgb(26,32,44); fill-rule: nonzero; opacity: 1;" transform=" translate(-186.2617, -109.2334)" d="M 184.5 121.63 a 7 7 0 0 1 -6.17 -3.37 a 9.11 9.11 0 0 1 -0.85 -4.88 h 0 a 21.22 21.22 0 0 1 1 -4.92 c 0.18 -0.61 0.36 -1.22 0.52 -1.83 c 0.87 -3.36 4.1 -8.57 7.91 -9.62 a 5.26 5.26 0 0 1 5.27 1.58 c 2.73 2.69 3.62 7.56 2.33 12.71 s -4.32 9 -7.92 10 A 7.77 7.77 0 0 1 184.5 121.63 Z m -6.14 -8.21 a 8.36 8.36 0 0 0 0.75 4.43 a 6.35 6.35 0 0 0 7.27 2.63 c 3.31 -1 6.11 -4.58 7.31 -9.39 s 0.41 -9.4 -2.09 -11.87 a 4.39 4.39 0 0 0 -4.42 -1.37 c -3.44 1 -6.49 5.93 -7.29 9 c -0.16 0.62 -0.34 1.24 -0.52 1.86 a 20.35 20.35 0 0 0 -1 4.71 Z" stroke-linecap="round"/>
</g>
		<g transform="matrix(1 0 0 1 11.5593 -53.2215)" id="_72_music">
<path style="stroke: none; stroke-width: 1; stroke-dasharray: none; stroke-linecap: butt; stroke-dashoffset: 0; stroke-linejoin: miter; stroke-miterlimit: 4; is-custom-font: none; font-file-url: none; fill: rgb(26,32,44); fill-rule: nonzero; opacity: 1;" transform=" translate(-211.5593, -96.7786)" d="M 219.45 122.19 a 1 1 0 0 1 -0.53 -0.15 a 1 1 0 0 1 -0.33 -1.37 c 0.11 -0.18 11.2 -18.42 13.1 -29.79 c 0.69 -4.12 -1.14 -8.3 -5.15 -11.79 c -5.48 -4.76 -13.66 -6.89 -19.45 -5.06 c -10.3 3.26 -15.78 27 -15.84 27.2 a 1 1 0 0 1 -1.19 0.75 a 1 1 0 0 1 -0.76 -1.19 c 0.23 -1 5.8 -25.07 17.19 -28.67 c 6.51 -2.05 15.29 0.19 21.36 5.46 c 4.56 4 6.63 8.8 5.82 13.63 c -2 11.76 -12.91 29.74 -13.37 30.5 A 1 1 0 0 1 219.45 122.19 Z" stroke-linecap="round"/>
</g>
		<g transform="matrix(1 0 0 1 16.3753 40.6579)" id="_72_music">
<path style="stroke: none; stroke-width: 1; stroke-dasharray: none; stroke-linecap: butt; stroke-dashoffset: 0; stroke-linejoin: miter; stroke-miterlimit: 4; is-custom-font: none; font-file-url: none; fill: rgb(26,32,44); fill-rule: nonzero; opacity: 1;" transform=" translate(-216.3753, -190.6578)" d="M 273.67 263.82 a 34.09 34.09 0 0 1 -10.55 -1.71 a 34.61 34.61 0 0 1 -11.07 -6.44 c -5.55 -4.49 -10.44 -9.85 -15.17 -15 c -3 -3.29 -6.1 -6.69 -9.34 -9.83 c -10.15 -9.84 -20.23 -15.08 -30 -15.56 c -13.14 -0.66 -24.79 6.85 -35.41 15.06 c -1 0.8 -2.08 1.63 -3.14 2.47 c -8.59 6.81 -18.33 14.52 -30.33 12.71 c -8.18 -1.23 -14.53 -6.87 -18.41 -11.38 c -9.55 -11.11 -14 -27 -11.79 -42.41 c 2.34 -16.6 11.59 -28.3 27.5 -34.78 c 13.17 -5.36 25.6 -12.86 37.63 -20.11 l 0.1 -0.05 c 7.45 -4.5 15.36 -10.26 17.49 -18.9 a 0.5 0.5 0 1 1 1 0.24 c -2.22 9 -10.32 14.91 -17.95 19.51 l -0.09 0.06 c -12.06 7.27 -24.53 14.79 -37.77 20.18 c -15.56 6.33 -24.6 17.76 -26.89 34 C 97.34 207 101.66 222.55 111 233.44 c 3.77 4.39 9.92 9.87 17.8 11.05 c 11.57 1.75 20.72 -5.5 29.56 -12.5 l 3.15 -2.48 c 10.78 -8.33 22.61 -15.95 36.07 -15.27 c 10 0.5 20.3 5.83 30.63 15.84 c 3.26 3.17 6.37 6.58 9.38 9.88 c 4.7 5.16 9.56 10.49 15.06 14.93 a 33.73 33.73 0 0 0 10.74 6.27 c 13.51 4.36 27 0.07 40.19 -12.76 c 19.57 -19.08 30.6 -48 30.25 -79.44 c -0.16 -14.68 -2.9 -26.15 -8.38 -35.08 c -2.21 -3.61 -5 -7.63 -9.54 -9.64 c -2.32 -1 -7.76 -1.38 -9.86 1.57 c -0.8 1.13 -0.88 2.46 -1 4.15 c 0 0.73 -0.1 1.55 -0.21 2.44 a 0.5 0.5 0 0 1 -1 -0.13 c 0.12 -0.86 0.16 -1.63 0.21 -2.37 c 0.11 -1.78 0.21 -3.31 1.18 -4.67 c 2.44 -3.43 8.42 -3.07 11.08 -1.9 c 4.84 2.12 7.69 6.29 10 10 c 5.58 9.09 8.36 20.73 8.53 35.6 c 0.35 31.68 -10.78 60.9 -30.55 80.16 C 294.27 258.9 284 263.81 273.67 263.82 Z" stroke-linecap="round"/>
</g>
		<g transform="matrix(1 0 0 1 -17.8906 -108.295)" id="_72_music">
<path style="stroke: none; stroke-width: 1; stroke-dasharray: none; stroke-linecap: butt; stroke-dashoffset: 0; stroke-linejoin: miter; stroke-miterlimit: 4; is-custom-font: none; font-file-url: none; fill: rgb(26,32,44); fill-rule: nonzero; opacity: 1;" transform=" translate(-182.1094, -41.705)" d="M 177 43.42 a 0.52 0.52 0 0 1 -0.38 -0.17 a 0.51 0.51 0 0 1 0 -0.71 c 2.2 -1.91 4.38 -2.75 6.49 -2.51 a 7 7 0 0 1 4.54 2.59 a 0.51 0.51 0 0 1 -0.11 0.7 a 0.5 0.5 0 0 1 -0.7 -0.11 A 6.08 6.08 0 0 0 183 41 c -1.82 -0.21 -3.74 0.56 -5.72 2.28 A 0.49 0.49 0 0 1 177 43.42 Z" stroke-linecap="round"/>
</g>
		<g transform="matrix(1 0 0 1 13.0957 42.2409)" id="_72_music">
<path style="stroke: none; stroke-width: 1; stroke-dasharray: none; stroke-linecap: butt; stroke-dashoffset: 0; stroke-linejoin: miter; stroke-miterlimit: 4; is-custom-font: none; font-file-url: none; fill: rgb(26,32,44); fill-rule: nonzero; opacity: 1;" transform=" translate(-213.0957, -192.2408)" d="M 206.79 205.32 a 0.52 0.52 0 0 1 -0.21 0 a 0.47 0.47 0 0 1 -0.2 -0.62 L 219 179.4 a 0.45 0.45 0 0 1 0.81 0.41 L 207.2 205.07 A 0.45 0.45 0 0 1 206.79 205.32 Z" stroke-linecap="round"/>
</g>
		<g transform="matrix(1 0 0 1 -26.5328 57.3312)" id="_72_music">
<path style="stroke: none; stroke-width: 1; stroke-dasharray: none; stroke-linecap: butt; stroke-dashoffset: 0; stroke-linejoin: miter; stroke-miterlimit: 4; is-custom-font: none; font-file-url: none; fill: rgb(26,32,44); fill-rule: nonzero; opacity: 1;" transform=" translate(-173.4672, -207.3312)" d="M 183.28 210.25 c -14.45 0 -31.43 -4.68 -32.37 -4.94 a 0.46 0.46 0 1 1 0.24 -0.88 c 0.31 0.08 30.63 8.45 44.65 3.1 a 0.46 0.46 0 0 1 0.59 0.27 a 0.44 0.44 0 0 1 -0.26 0.58 A 37.1 37.1 0 0 1 183.28 210.25 Z" stroke-linecap="round"/>
</g>
		<g transform="matrix(1 0 0 1 104.77 -20.62)" id="_72_music">
<rect style="stroke: none; stroke-width: 1; stroke-dasharray: none; stroke-linecap: butt; stroke-dashoffset: 0; stroke-linejoin: miter; stroke-miterlimit: 4; is-custom-font: none; font-file-url: none; fill: rgb(26,32,44); fill-rule: nonzero; opacity: 1;" x="-1.09" y="-1.62" rx="0" ry="0" width="2.18" height="3.24"/>
</g>
		<g transform="matrix(1 0 0 1 104.765 -20.62)" id="_72_music">
<path style="stroke: none; stroke-width: 1; stroke-dasharray: none; stroke-linecap: butt; stroke-dashoffset: 0; stroke-linejoin: miter; stroke-miterlimit: 4; is-custom-font: none; font-file-url: none; fill: rgb(26,32,44); fill-rule: nonzero; opacity: 1;" transform=" translate(-304.765, -129.3799)" d="M 305.86 131.44 h -2.18 a 0.45 0.45 0 0 1 -0.45 -0.44 v -3.24 a 0.44 0.44 0 0 1 0.45 -0.44 h 2.18 a 0.44 0.44 0 0 1 0.44 0.44 V 131 A 0.44 0.44 0 0 1 305.86 131.44 Z m -1.74 -0.89 h 1.3 V 128.2 h -1.3 Z" stroke-linecap="round"/>
</g>
		<g transform="matrix(1 0 0 1 -11.4264 -40.885)" id="_72_music">
<path style="stroke: none; stroke-width: 1; stroke-dasharray: none; stroke-linecap: butt; stroke-dashoffset: 0; stroke-linejoin: miter; stroke-miterlimit: 4; is-custom-font: none; font-file-url: none; fill: rgb(255,255,255); fill-rule: nonzero; opacity: 1;" transform=" translate(-188.5736, -109.115)" d="M 186.65 118.32 l -0.72 -0.7 a 14.57 14.57 0 0 0 2.57 -17.2 l 0.86 -0.51 A 15.6 15.6 0 0 1 186.65 118.32 Z" stroke-linecap="round"/>
</g>
		<g transform="matrix(1 0 0 1 20.3584 -25.385)" id="_72_music">
<path style="stroke: none; stroke-width: 1; stroke-dasharray: none; stroke-linecap: butt; stroke-dashoffset: 0; stroke-linejoin: miter; stroke-miterlimit: 4; is-custom-font: none; font-file-url: none; fill: rgb(255,255,255); fill-rule: nonzero; opacity: 1;" transform=" translate(-220.3584, -124.615)" d="M 219.65 131.44 l -0.93 -0.37 c 2.92 -7.53 2.18 -13.09 2.18 -13.14 l 1 -0.14 C 221.92 118 222.67 123.64 219.65 131.44 Z" stroke-linecap="round"/>
</g>
		<g transform="matrix(0.6993 -0.7148 0.7148 0.6993 -57.0979 -63.2751)" id="_72_music">
<rect style="stroke: none; stroke-width: 1; stroke-dasharray: none; stroke-linecap: butt; stroke-dashoffset: 0; stroke-linejoin: miter; stroke-miterlimit: 4; is-custom-font: none; font-file-url: none; fill: rgb(255,255,255); fill-rule: nonzero; opacity: 1;" x="-5.18" y="-0.5" rx="0" ry="0" width="10.36" height="1"/>
</g>
		<g transform="matrix(0.4398 -0.8981 0.8981 0.4398 73.9655 38.7621)" id="_72_music">
<rect style="stroke: none; stroke-width: 1; stroke-dasharray: none; stroke-linecap: butt; stroke-dashoffset: 0; stroke-linejoin: miter; stroke-miterlimit: 4; is-custom-font: none; font-file-url: none; fill: rgb(255,255,255); fill-rule: nonzero; opacity: 1;" x="-0.5" y="-4.285" rx="0" ry="0" width="1" height="8.57"/>
</g>
		<g transform="matrix(1 0 0 1 -117.7869 -31.605)" id="_72_music">
<path style="stroke: none; stroke-width: 1; stroke-dasharray: none; stroke-linecap: butt; stroke-dashoffset: 0; stroke-linejoin: miter; stroke-miterlimit: 4; is-custom-font: none; font-file-url: none; fill: rgb(49,130,206); fill-rule: nonzero; opacity: 1;" transform=" translate(-82.213, -118.395)" d="M 69.78 137.33 c -0.42 -0.1 -0.87 -0.17 -1.28 -0.31 a 3.82 3.82 0 0 1 -2.74 -2.61 a 4 4 0 0 1 0.6 -3.25 A 7.27 7.27 0 0 1 71.18 128 c 1.29 -0.29 1.87 -0.22 3.92 0.28 V 104.2 l 23.68 -4.74 V 100 c 0 9.64 0 19.27 0 28.91 a 5 5 0 0 1 -1.75 4 a 7.38 7.38 0 0 1 -7.23 1.78 a 3.67 3.67 0 0 1 -2.74 -2.6 a 3.88 3.88 0 0 1 0.59 -3.24 a 7.21 7.21 0 0 1 4.84 -3.16 a 6.86 6.86 0 0 1 3.88 0.28 V 109.41 l -1.68 0.33 q -8.45 1.7 -16.87 3.37 c -0.31 0.06 -0.36 0.18 -0.36 0.46 c 0 5.86 0 11.71 0 17.56 a 5.37 5.37 0 0 1 -2.31 4.59 a 7.92 7.92 0 0 1 -3.78 1.54 a 1.72 1.72 0 0 0 -0.21 0.07 Z" stroke-linecap="round"/>
</g>
		<g transform="matrix(1 0 0 1 53.465 -91.6404)" id="_72_music">
<path style="stroke: none; stroke-width: 1; stroke-dasharray: none; stroke-linecap: butt; stroke-dashoffset: 0; stroke-linejoin: miter; stroke-miterlimit: 4; is-custom-font: none; font-file-url: none; fill: rgb(49,130,206); fill-rule: nonzero; opacity: 1;" transform=" translate(-253.465, -58.3596)" d="M 262.33 65.29 a 5 5 0 0 0 0.6 -0.32 a 1.93 1.93 0 0 0 1 -1.65 a 2 2 0 0 0 -0.72 -1.53 a 3.71 3.71 0 0 0 -2.79 -0.92 a 3.51 3.51 0 0 0 -1.9 0.64 l -3.15 -11.92 L 243 50.33 l 0.07 0.25 c 1.25 4.77 2.52 9.54 3.77 14.32 a 2.56 2.56 0 0 0 1.38 1.75 a 3.79 3.79 0 0 0 3.81 -0.07 a 1.87 1.87 0 0 0 1 -1.64 a 2 2 0 0 0 -0.71 -1.53 a 3.74 3.74 0 0 0 -2.82 -0.93 a 3.51 3.51 0 0 0 -1.88 0.64 L 245.52 55 l 0.88 -0.06 l 8.79 -0.53 c 0.16 0 0.2 0 0.24 0.18 c 0.76 2.89 1.54 5.79 2.28 8.69 a 2.75 2.75 0 0 0 1.74 2 a 4.1 4.1 0 0 0 2.08 0.27 h 0.11 Z" stroke-linecap="round"/>
</g>
		<g transform="matrix(1 0 0 1 103.6379 68.3662)" id="_72_music">
<path style="stroke: none; stroke-width: 1; stroke-dasharray: none; stroke-linecap: butt; stroke-dashoffset: 0; stroke-linejoin: miter; stroke-miterlimit: 4; is-custom-font: none; font-file-url: none; fill: rgb(49,130,206); fill-rule: nonzero; opacity: 1;" transform=" translate(-303.6379, -218.3661)" d="M 310.44 228.17 c 0 -0.19 0 -0.38 0 -0.57 a 3.06 3.06 0 0 0 -0.57 -1.45 a 6.36 6.36 0 0 0 -1.93 -1.83 a 7.11 7.11 0 0 0 -2.51 -1 a 4.52 4.52 0 0 0 -1.72 0 l -0.15 0 a 1.21 1.21 0 0 1 0 -0.2 c 0.1 -0.39 0.2 -0.77 0.31 -1.14 l 2 -7 c 0.73 -2.54 1.47 -5.08 2.2 -7.62 l 0 -0.15 l -0.7 -0.06 a 12.44 12.44 0 0 0 -5.59 1 a 8.07 8.07 0 0 0 -3.91 3.43 c -0.25 0.44 -0.44 0.91 -0.65 1.38 c -0.14 0.3 -0.25 0.62 -0.38 0.93 a 0.51 0.51 0 0 0 0 0.13 l 0.25 -0.15 a 19 19 0 0 1 2.49 -1.38 a 8.88 8.88 0 0 1 4.25 -0.76 a 7.77 7.77 0 0 1 1.84 0.41 l 0 0 a 0.83 0.83 0 0 0 0 0.15 q -1.82 6.32 -3.61 12.63 a 0.58 0.58 0 0 0 0 0.23 a 3.61 3.61 0 0 0 0.9 2 a 6.59 6.59 0 0 0 2.34 1.81 l 0.78 0.34 l 0.72 0.21 H 307 a 4.55 4.55 0 0 0 1.8 0 a 2.1 2.1 0 0 0 1.29 -0.7 a 5.4 5.4 0 0 0 0.3 -0.47 Z" stroke-linecap="round"/>
</g>
		<g transform="matrix(1 0 0 1 -124.0643 68.4159)" id="_72_music">
<path style="stroke: none; stroke-width: 1; stroke-dasharray: none; stroke-linecap: butt; stroke-dashoffset: 0; stroke-linejoin: miter; stroke-miterlimit: 4; is-custom-font: none; font-file-url: none; fill: rgb(49,130,206); fill-rule: nonzero; opacity: 1;" transform=" translate(-75.9357, -218.4159)" d="M 65.79 230.37 c 0 -0.24 0 -0.49 0.11 -0.73 a 3.92 3.92 0 0 1 1 -1.75 a 8.37 8.37 0 0 1 2.86 -1.95 a 9.16 9.16 0 0 1 3.42 -0.77 a 6 6 0 0 1 2.21 0.35 l 0.19 0.07 a 2.28 2.28 0 0 0 0 -0.26 c 0 -0.51 -0.1 -1 -0.16 -1.52 q -0.57 -4.73 -1.15 -9.43 c -0.42 -3.42 -0.85 -6.83 -1.27 -10.24 l 0 -0.2 c 0.31 0 0.62 0 0.91 0.07 a 16.24 16.24 0 0 1 7 2.39 a 10.52 10.52 0 0 1 4.31 5.2 a 17.93 17.93 0 0 1 0.55 1.9 c 0.12 0.42 0.2 0.85 0.3 1.28 a 0.32 0.32 0 0 1 0 0.17 l -0.29 -0.25 a 24.87 24.87 0 0 0 -2.92 -2.28 a 11.37 11.37 0 0 0 -5.29 -1.83 a 10.06 10.06 0 0 0 -2.45 0.14 l 0 0 a 1.23 1.23 0 0 1 0 0.19 q 1 8.48 2.05 17 a 0.71 0.71 0 0 1 0 0.29 a 4.71 4.71 0 0 1 -1.57 2.43 a 8.4 8.4 0 0 1 -3.38 1.84 c -0.35 0.11 -0.71 0.19 -1.06 0.28 l -1 0.12 H 70 a 5.88 5.88 0 0 1 -2.32 -0.32 a 2.66 2.66 0 0 1 -1.5 -1.15 a 5.06 5.06 0 0 1 -0.3 -0.67 Z" stroke-linecap="round"/>
</g>
		<g transform="matrix(1 0 0 1 86.05 -53.2198)" id="_72_music">
<path style="stroke: none; stroke-width: 1; stroke-dasharray: none; stroke-linecap: butt; stroke-dashoffset: 0; stroke-linejoin: miter; stroke-miterlimit: 4; is-custom-font: none; font-file-url: none; fill: rgb(49,130,206); fill-rule: nonzero; opacity: 1;" transform=" translate(-286.05, -96.7802)" d="M 271.45 107.85 c 0.13 -0.26 0.24 -0.53 0.39 -0.77 a 4.79 4.79 0 0 1 1.84 -1.59 a 10.1 10.1 0 0 1 4 -1.08 a 11 11 0 0 1 4.16 0.47 a 6.93 6.93 0 0 1 2.36 1.27 l 0.19 0.15 a 1.78 1.78 0 0 0 0.12 -0.29 c 0.15 -0.59 0.29 -1.18 0.42 -1.78 l 2.4 -11.1 q 1.29 -6 2.57 -12.06 l 0.05 -0.24 c 0.35 0.15 0.68 0.28 1 0.43 a 19.42 19.42 0 0 1 6.94 5.44 a 12.54 12.54 0 0 1 2.84 7.57 a 23.12 23.12 0 0 1 -0.12 2.35 c 0 0.53 -0.11 1 -0.17 1.57 a 0.43 0.43 0 0 1 -0.06 0.18 l -0.24 -0.39 a 29 29 0 0 0 -2.4 -3.71 a 13.52 13.52 0 0 0 -5.26 -4.15 a 11.48 11.48 0 0 0 -2.82 -0.79 s 0 0 -0.07 0 a 1.55 1.55 0 0 1 -0.05 0.23 l -4.32 19.94 a 1 1 0 0 1 -0.13 0.33 a 5.66 5.66 0 0 1 -2.72 2.13 a 10.23 10.23 0 0 1 -4.54 0.75 c -0.44 0 -0.87 -0.06 -1.31 -0.1 l -1.15 -0.24 l -0.19 -0.08 a 7 7 0 0 1 -2.49 -1.27 a 3.31 3.31 0 0 1 -1.25 -1.89 a 8.28 8.28 0 0 1 -0.07 -0.87 Z" stroke-linecap="round"/>
</g>
		<g transform="matrix(1 0 0 1 -104.8282 7.39)" id="_72_music">
<path style="stroke: none; stroke-width: 1; stroke-dasharray: none; stroke-linecap: butt; stroke-dashoffset: 0; stroke-linejoin: miter; stroke-miterlimit: 4; is-custom-font: none; font-file-url: none; fill: rgb(49,130,206); fill-rule: nonzero; opacity: 1;" transform=" translate(-95.1719, -157.39)" d="M 95.17 153.39 c -5.15 0 -5.16 8 0 8 S 100.33 153.39 95.17 153.39 Z" stroke-linecap="round"/>
</g>
		<g transform="matrix(1 0 0 1 75.6539 -12.3196)" id="_72_music">
<path style="stroke: none; stroke-width: 1; stroke-dasharray: none; stroke-linecap: butt; stroke-dashoffset: 0; stroke-linejoin: miter; stroke-miterlimit: 4; is-custom-font: none; font-file-url: none; fill: rgb(49,130,206); fill-rule: nonzero; opacity: 1;" transform=" translate(-275.6539, -137.6805)" d="M 277.86 137.15 a 2.11 2.11 0 0 0 -0.51 -0.88 l -0.41 -0.31 a 2 2 0 0 0 -1 -0.28 h -0.56 a 1.46 1.46 0 0 0 -0.77 0.18 a 1.44 1.44 0 0 0 -0.65 0.41 a 1.56 1.56 0 0 0 -0.41 0.64 a 1.47 1.47 0 0 0 -0.17 0.77 l 0.07 0.54 a 2.06 2.06 0 0 0 0.51 0.88 l 0.41 0.31 a 2 2 0 0 0 1 0.27 h 0.56 a 1.45 1.45 0 0 0 0.77 -0.17 a 1.6 1.6 0 0 0 0.65 -0.41 a 2.26 2.26 0 0 0 0.58 -1.42 C 277.91 137.51 277.88 137.33 277.86 137.15 Z" stroke-linecap="round"/>
</g>
		<g transform="matrix(1 0 0 1 -89.06 -91.72)" id="_72_music">
<path style="stroke: none; stroke-width: 1; stroke-dasharray: none; stroke-linecap: butt; stroke-dashoffset: 0; stroke-linejoin: miter; stroke-miterlimit: 4; is-custom-font: none; font-file-url: none; fill: rgb(49,130,206); fill-rule: nonzero; opacity: 1;" transform=" translate(-110.94, -58.28)" d="M 110.94 55.78 c -3.22 0 -3.23 5 0 5 S 114.16 55.78 110.94 55.78 Z" stroke-linecap="round"/>
</g>
		<g transform="matrix(1 0 0 1 57.35 84.5)" id="_72_music">
<path style="stroke: none; stroke-width: 1; stroke-dasharray: none; stroke-linecap: butt; stroke-dashoffset: 0; stroke-linejoin: miter; stroke-miterlimit: 4; is-custom-font: none; font-file-url: none; fill: rgb(49,130,206); fill-rule: nonzero; opacity: 1;" transform=" translate(-257.35, -234.5)" d="M 257.35 232 c -3.22 0 -3.22 5 0 5 S 260.57 232 257.35 232 Z" stroke-linecap="round"/>
</g>
</g>
</g>
</svg>